<?xml version="1.0" encoding="utf-8"?>
<!-- Generator: Adobe Illustrator 19.2.1, SVG Export Plug-In . SVG Version: 6.00 Build 0)  -->
<svg version="1.1" id="layer" xmlns="http://www.w3.org/2000/svg" xmlns:xlink="http://www.w3.org/1999/xlink" x="0px" y="0px"
	 viewBox="0 0 652 652" style="enable-background:new 0 0 652 652;" xml:space="preserve">
<style type="text/css">
	.st0{fill:#FFFFFF;}
	.st1{fill:#022169;}
	.st2{fill:#FFC627;}
	.st3{fill:#7E9BC0;}
	.st4{fill:#63A70A;}
</style>
<polygon class="st0" points="472.9,72.7 451.4,100 451.4,363.6 472.9,391 658.7,391 680.1,363.6 680.1,100 658.7,72.7 "/>
<polygon class="st1" points="655.6,79 476,79 457.8,102.2 457.8,361.4 476,384.6 655.6,384.6 673.8,361.4 673.8,102.2 "/>
<path class="st1" d="M659,72H472.6l-21.8,27.8v264l21.8,27.8H659l21.8-27.8v-264L659,72z M679.4,363.3l-21.1,26.9h-185l-21.1-26.9
	v-263l21.1-26.9h185l21.1,26.9V363.3z"/>
<g>
	<path class="st1" d="M433.4,537.2c0-11.3,0-13.3-0.2-15.7c-0.1-2.5-0.7-3.6-3.1-4.1c-0.6-0.2-1.8-0.2-2.5-0.2
		c-0.3,0-0.6-0.2-0.6-0.4c0-0.4,0.4-0.6,1.2-0.6c3.3,0,7.8,0.2,8.2,0.2c0.5,0,18.5,0,20.1-0.1c1.4-0.1,2.5-0.2,3.1-0.4
		c0.4-0.1,0.6-0.4,1-0.4c0.2,0,0.3,0.3,0.3,0.6c0,0.5-0.4,1.4-0.6,3.4c-0.1,0.7-0.2,3.9-0.4,4.8c-0.1,0.4-0.2,0.8-0.5,0.8
		c-0.4,0-0.6-0.4-0.6-0.9c0-0.5-0.1-1.7-0.4-2.6c-0.5-1.2-1.2-2-5.1-2.5c-1.2-0.1-12.7-0.2-13.5-0.2c-0.3,0-0.4,0.2-0.4,0.7v20
		c0,0.5,0.1,0.7,0.4,0.7c0.9,0,13.4,0,15.1-0.2c1.7-0.2,2.8-0.3,3.4-1c0.5-0.6,0.8-0.9,1.1-0.9c0.2,0,0.4,0.1,0.4,0.6
		s-0.4,1.7-0.6,4.1c-0.2,1.4-0.3,4.1-0.3,4.6c0,0.6,0,1.4-0.5,1.4c-0.3,0-0.5-0.3-0.5-0.7c0-0.7,0-1.4-0.3-2.4
		c-0.3-1-0.9-2.2-3.8-2.5c-2-0.2-12.7-0.3-13.9-0.3c-0.4,0-0.5,0.2-0.5,0.5v6.3c0,2.5-0.1,10.9,0,12.4c0.2,5,4.8,5.9,12,5.9
		c1.9,0,5.1,0,7-0.8c1.9-0.8,2.7-2.3,3.3-5.2c0.1-0.8,0.3-1.1,0.7-1.1c0.4,0,0.4,0.6,0.4,1.1c0,0.6-0.6,5.5-0.9,7
		c-0.5,1.9-1.1,1.9-3.9,1.9c-10.9,0-19.3-0.4-21.4-0.4c-0.4,0-4.9,0.2-7.1,0.2c-0.8,0-1.2-0.2-1.2-0.6c0-0.2,0.2-0.4,0.6-0.4
		c0.6,0,1.5-0.1,2.2-0.3c1.4-0.3,1.8-1.9,2.1-4c0.4-3,0.4-8.8,0.4-15.7V537.2z"/>
	<path class="st1" d="M222.8,537.2c0-11.3,0-13.3-0.1-15.7c-0.2-2.5-0.7-3.6-3.1-4.1c-0.6-0.2-1.8-0.2-2.5-0.2
		c-0.3,0-0.6-0.2-0.6-0.4c0-0.4,0.4-0.6,1.2-0.6c3.3,0,7.7,0.2,8.3,0.2s5-0.2,7.2-0.2c0.8,0,1.2,0.2,1.2,0.6c0,0.3-0.3,0.4-0.6,0.4
		c-0.5,0-1,0.1-1.8,0.2c-2,0.3-2.5,1.6-2.7,4.1c-0.1,2.3-0.1,4.3-0.1,15.7v10.1c0,10.4,2.3,14.9,5.4,17.9c3.5,3.3,6.8,4,11,4
		c4.4,0,8.8-2.1,11.4-5.2c3.3-4.1,4.2-10.3,4.2-17.8v-9.1c0-11.3,0-13.3-0.2-15.7c-0.1-2.5-0.7-3.6-3.1-4.1
		c-0.6-0.2-1.8-0.2-2.5-0.2c-0.3,0-0.6-0.2-0.6-0.4c0-0.4,0.4-0.6,1.2-0.6c3.3,0,7.2,0.2,7.7,0.2c0.5,0,3.9-0.2,6.1-0.2
		c0.8,0,1.1,0.2,1.1,0.6c0,0.3-0.3,0.4-0.6,0.4c-0.5,0-0.9,0-1.8,0.2c-2,0.4-2.5,1.6-2.7,4.1c-0.1,2.3-0.1,4.3-0.1,15.7v7.8
		c0,7.8-0.9,16.5-6.7,21.7c-5.2,4.6-10.7,5.4-14.9,5.4c-2.5,0-9.8-0.3-14.9-5.1c-3.6-3.4-6.3-8.5-6.3-19.1V537.2z"/>
	<path class="st1" d="M284,561.1c0.1,5.9,0.9,7.8,2.8,8.4c1.4,0.4,3,0.4,3.6,0.4c0.4,0,0.6,0.1,0.6,0.4c0,0.4-0.4,0.6-1.3,0.6
		c-4.1,0-7-0.2-7.7-0.2c-0.7,0-3.7,0.2-7,0.2c-0.7,0-1.2-0.1-1.2-0.6c0-0.3,0.2-0.4,0.6-0.4c0.6,0,1.9-0.1,3-0.4
		c1.8-0.5,2.2-2.6,2.2-9.2l0.1-41.5c0-2.8,0.2-3.6,0.8-3.6c0.6,0,1.8,1.6,2.5,2.3c1.1,1.2,11.9,12.9,23.1,24.9
		c7.2,7.7,15.1,16.5,17.4,18.9l-0.8-36.8c-0.1-4.7-0.6-6.3-2.8-6.9c-1.3-0.3-3-0.4-3.5-0.4c-0.5,0-0.6-0.2-0.6-0.5
		c0-0.4,0.6-0.5,1.4-0.5c3.3,0,6.8,0.2,7.5,0.2s3.2-0.2,6.1-0.2c0.8,0,1.3,0.1,1.3,0.5c0,0.3-0.3,0.5-0.8,0.5c-0.4,0-0.9,0-1.7,0.2
		c-2.4,0.5-2.7,2.1-2.7,6.4l-0.1,42.5c0,4.8-0.2,5.2-0.7,5.2c-0.6,0-1.5-0.8-5.3-4.6c-0.8-0.7-11.2-11.4-18.9-19.6
		c-8.4-9.1-16.6-18.2-18.9-20.8L284,561.1z"/>
	<path class="st1" d="M352.4,549.9c0,7,0,12.7,0.4,15.7c0.2,2.1,0.6,3.7,2.8,4c1,0.2,2.6,0.3,3.2,0.3c0.4,0,0.6,0.2,0.6,0.4
		c0,0.4-0.4,0.6-1.2,0.6c-4,0-8.5-0.2-8.9-0.2c-0.4,0-4.9,0.2-7.1,0.2c-0.8,0-1.2-0.2-1.2-0.6c0-0.2,0.1-0.4,0.6-0.4
		c0.7,0,1.5-0.2,2.2-0.3c1.4-0.3,1.8-1.9,2.1-4c0.4-3,0.4-8.8,0.4-15.7v-12.8c0-11.3,0-13.3-0.2-15.7c-0.1-2.5-0.9-3.7-2.5-4.1
		c-0.8-0.2-1.7-0.3-2.2-0.3c-0.3,0-0.6-0.2-0.6-0.4c0-0.4,0.4-0.6,1.1-0.6c2.4,0,7,0.2,7.3,0.2c0.4,0,4.9-0.2,7.1-0.2
		c0.8,0,1.2,0.1,1.2,0.6c0,0.3-0.3,0.4-0.6,0.4c-0.5,0-0.9,0.1-1.8,0.2c-1.9,0.4-2.5,1.6-2.7,4.1c-0.2,2.3-0.2,4.4-0.2,15.7V549.9z"
		/>
	<path class="st1" d="M395.2,562.1c4.2-9.7,13.9-35,15.5-40.2c0.4-1.1,0.7-2.1,0.7-2.8c0-0.6-0.2-1.3-0.9-1.7
		c-0.9-0.3-1.9-0.3-2.8-0.3c-0.4,0-0.8-0.1-0.8-0.4c0-0.4,0.4-0.6,1.6-0.6c2.9,0,6.2,0.2,7.1,0.2c0.4,0,3.5-0.2,5.6-0.2
		c0.8,0,1.2,0.1,1.2,0.5c0,0.4-0.3,0.5-0.9,0.5c-0.5,0-2.1,0-3.5,0.9c-0.9,0.6-2,1.9-4,6.8c-0.8,2-4.4,10.7-8.1,19.6
		c-4.4,10.6-7.7,18.4-9.3,22c-2.1,4.4-2.3,5.5-3.1,5.5c-0.9,0-1.2-1-2.6-4.5L373.2,523c-1.6-4.1-2.7-4.9-5.2-5.6
		c-1.1-0.3-2.3-0.3-2.8-0.3c-0.4,0-0.6-0.2-0.6-0.5c0-0.4,0.7-0.5,1.9-0.5c3.5,0,7.6,0.2,8.5,0.2c0.7,0,4-0.2,6.7-0.2
		c1.3,0,1.9,0.1,1.9,0.5c0,0.4-0.2,0.5-0.7,0.5c-0.8,0-2.1,0.1-2.8,0.4c-0.8,0.4-0.9,0.9-0.9,1.5c0,0.9,0.9,3.2,2,6L395.2,562.1z"/>
	<path class="st1" d="M476.9,537.2c0-11.3,0-13.3-0.2-15.7c-0.1-2.5-0.7-3.6-3.1-4.1c-0.6-0.2-1.8-0.2-2.5-0.2
		c-0.3,0-0.6-0.2-0.6-0.4c0-0.4,0.4-0.6,1.2-0.6c3.3,0,7.8,0.2,8.2,0.2c0.8,0,6.3-0.2,8.6-0.2c4.6,0,9.4,0.4,13.3,3.2
		c1.8,1.3,5,4.8,5,9.8c0,5.4-2.2,10.7-8.8,16.7c4.6,7.2,6.4,11.2,12.1,18.4c3.6,4.5,7,4.9,8.8,5.2c1.4,0.2,0.3,0.2,0.7,0.2
		c0.3,0,0.6,0.2,0.6,0.4c0,0.4-0.4,0.6-1.7,0.6h-3c-4.1,0-5.9-0.4-7.8-1.4c-3.1-1.7-5.5-5.7-9.1-11.2c-2.7-4.2-4.2-8.1-5.7-10
		c-0.3-0.3-0.5-0.4-0.9-0.4l-8.9-0.1c-0.4,0-0.5,0.2-0.5,0.6v1.7c0,7,0,12.7,0.4,15.7c0.2,2.1,0.7,3.7,2.8,4c1,0.2,2.6,0.3,3.2,0.3
		c0.4,0,0.6,0.2,0.6,0.4c0,0.4-0.4,0.6-1.2,0.6c-4,0-8.6-0.2-8.9-0.2c-0.1,0-4.6,0.2-6.8,0.2c-0.8,0-1.2-0.2-1.2-0.6
		c0-0.2,0.2-0.4,0.6-0.4c0.6,0,1.5-0.1,2.2-0.3c1.5-0.3,1.8-1.9,2.1-4c0.4-3,0.4-8.8,0.4-15.7V537.2z M482.6,543.5
		c0,0.4,0.1,0.7,0.5,0.9c1.1,0.7,4.4,1.2,7.6,1.2c1.7,0,3.8-0.2,5.4-1.4c2.5-1.7,4.4-5.7,4.4-11.2c0-9.1-4.8-14.5-12.5-14.5
		c-2.2,0-4.1,0.2-4.9,0.4c-0.3,0.1-0.6,0.4-0.6,0.9V543.5z"/>
	<path class="st1" d="M522.6,570c-1-0.5-1.1-0.8-1.1-2.8c0-3.6,0.3-6.5,0.4-7.7c0.1-0.8,0.2-1.2,0.6-1.2c0.4,0,0.5,0.2,0.5,0.8
		c0,0.7,0,1.7,0.2,2.7c1.1,5.4,5.9,7.4,10.7,7.4c7,0,10.4-5,10.4-9.6c0-5-2.1-7.9-8.3-13.1l-3.3-2.7c-7.7-6.3-9.4-10.8-9.4-15.7
		c0-7.8,5.8-13,15-13c2.8,0,4.9,0.3,6.7,0.7c1.4,0.3,1.9,0.4,2.5,0.4c0.6,0,0.7,0.1,0.7,0.5s-0.3,2.8-0.3,7.7c0,1.2-0.2,1.7-0.5,1.7
		c-0.4,0-0.5-0.4-0.6-0.9c-0.1-0.9-0.5-2.8-1-3.6c-0.4-0.8-2.4-3.8-9-3.8c-5,0-8.9,3.1-8.9,8.4c0,4.1,2,6.6,8.8,12.2l2,1.6
		c8.6,6.7,10.6,11.2,10.6,17c0,3-1.2,8.5-6.1,12c-3.1,2.2-7,3-10.9,3C528.9,572,525.6,571.5,522.6,570"/>
	<path class="st1" d="M569,549.9c0,7,0,12.7,0.4,15.7c0.2,2.1,0.7,3.7,2.8,4c1,0.2,2.6,0.3,3.3,0.3c0.4,0,0.6,0.2,0.6,0.4
		c0,0.4-0.4,0.6-1.2,0.6c-4,0-8.5-0.2-8.9-0.2c-0.4,0-4.9,0.2-7.1,0.2c-0.8,0-1.2-0.2-1.2-0.6c0-0.2,0.1-0.4,0.6-0.4
		c0.6,0,1.5-0.2,2.2-0.3c1.4-0.3,1.8-1.9,2.1-4c0.4-3,0.4-8.8,0.4-15.7v-12.8c0-11.3,0-13.3-0.1-15.7c-0.1-2.5-0.9-3.7-2.5-4.1
		c-0.8-0.2-1.8-0.3-2.3-0.3c-0.3,0-0.6-0.2-0.6-0.4c0-0.4,0.4-0.6,1.2-0.6c2.4,0,7,0.2,7.3,0.2c0.4,0,4.9-0.2,7.1-0.2
		c0.8,0,1.2,0.1,1.2,0.6c0,0.3-0.3,0.4-0.6,0.4c-0.5,0-0.9,0.1-1.8,0.2c-2,0.4-2.5,1.6-2.7,4.1c-0.1,2.3-0.1,4.4-0.1,15.7V549.9z"/>
	<path class="st1" d="M606.3,549.9c0,7,0,12.7,0.4,15.7c0.2,2.1,0.7,3.7,2.8,4c1,0.2,2.6,0.3,3.3,0.3c0.4,0,0.6,0.2,0.6,0.4
		c0,0.4-0.4,0.6-1.2,0.6c-4,0-8.6-0.2-8.9-0.2c-0.4,0-4.9,0.2-7.1,0.2c-0.8,0-1.2-0.2-1.2-0.6c0-0.2,0.1-0.4,0.6-0.4
		c0.7,0,1.5-0.2,2.2-0.3c1.5-0.3,1.8-1.9,2.1-4c0.4-3,0.4-8.8,0.4-15.7v-30.7l-10.7,0.2c-4.5,0.1-6.2,0.6-7.4,2.3
		c-0.8,1.2-1,1.7-1.2,2.2c-0.2,0.6-0.4,0.7-0.7,0.7c-0.2,0-0.4-0.2-0.4-0.6c0-0.7,1.5-7,1.6-7.5c0.1-0.4,0.5-1.4,0.7-1.4
		c0.5,0,1.2,0.7,3.2,0.9c2.1,0.2,4.9,0.4,5.7,0.4h27.2c4.6,0,6.6-0.7,7.2-0.7c0.4,0,0.4,0.4,0.4,0.9c0,2.2-0.2,7.2-0.2,8
		c0,0.7-0.2,1-0.5,1c-0.4,0-0.5-0.2-0.6-1.2l-0.1-0.8c-0.3-2.2-2-3.8-8.9-4l-9.1-0.2V549.9z"/>
	<path class="st1" d="M651.1,552.2c0-3.9-0.7-5.5-1.7-7.6c-0.5-1.2-10.2-17.1-12.7-20.9c-1.8-2.7-3.6-4.5-4.9-5.4
		c-1.1-0.7-2.5-1.2-3.1-1.2c-0.4,0-0.7-0.2-0.7-0.5c0-0.3,0.3-0.5,0.9-0.5c1.4,0,6.8,0.2,7.2,0.2c0.5,0,3.2-0.2,6.1-0.2
		c0.8,0,0.9,0.2,0.9,0.5c0,0.3-0.4,0.4-1.1,0.7c-0.6,0.3-0.9,0.7-0.9,1.3c0,0.9,0.4,1.7,0.9,2.8c1.2,2.1,12,20.8,13.3,22.9
		c1.4-3,10.6-18.9,12-21.3c1-1.5,1.2-2.7,1.2-3.7c0-1-0.3-1.8-1.2-2c-0.7-0.2-1.1-0.4-1.1-0.7c0-0.3,0.4-0.4,1.2-0.4
		c1.9,0,4.2,0.2,4.8,0.2c0.4,0,5.7-0.2,7-0.2c0.5,0,1,0.1,1,0.4c0,0.4-0.4,0.6-1,0.6c-0.8,0-2.2,0.3-3.3,1c-1.5,0.9-2.2,1.7-3.9,3.7
		c-2.4,2.9-12.5,19.9-13.8,23c-1.1,2.6-1.1,4.9-1.1,7.3v6.2c0,1.2,0,4.2,0.2,7.2c0.2,2.1,0.8,3.7,3,4c1,0.2,2.6,0.3,3.3,0.3
		c0.4,0,0.6,0.2,0.6,0.4c0,0.4-0.4,0.6-1.2,0.6c-4,0-8.6-0.2-8.9-0.2c-0.4,0-4.9,0.2-7.1,0.2c-0.8,0-1.2-0.2-1.2-0.6
		c0-0.2,0.2-0.4,0.6-0.4c0.6,0,1.5-0.2,2.2-0.3c1.4-0.3,2.1-1.9,2.3-4c0.2-3,0.2-6.1,0.2-7.2V552.2z"/>
	<path class="st1" d="M156.8,244.8c0-11.3,0-13.3-0.1-15.7c-0.2-2.5-0.7-3.6-3.1-4.1c-0.6-0.1-1.8-0.2-2.5-0.2
		c-0.3,0-0.6-0.1-0.6-0.4c0-0.4,0.4-0.6,1.2-0.6c3.3,0,7.8,0.2,8.2,0.2c0.8,0,6.3-0.2,8.5-0.2c4.6,0,9.4,0.4,13.3,3.2
		c1.8,1.3,5,4.9,5,9.9c0,5.4-2.2,10.7-8.8,16.7c4.6,7.2,6.4,11.2,12.1,18.4c3.5,4.4,7,4.9,8.8,5.2c1.4,0.2,0.3,0.2,0.7,0.2
		c0.4,0,0.7,0.2,0.7,0.4c0,0.4-0.4,0.6-1.7,0.6h-3c-4.1,0-5.9-0.4-7.8-1.4c-3.1-1.7-5.5-5.7-9-11.2c-2.7-4.1-4.2-8.1-5.7-10
		c-0.3-0.3-0.5-0.4-1-0.4l-8.9-0.2c-0.4,0-0.5,0.2-0.5,0.6v1.7c0,7,0,12.7,0.4,15.7c0.2,2.1,0.7,3.7,2.8,4c1,0.1,2.6,0.3,3.3,0.3
		c0.4,0,0.6,0.2,0.6,0.4c0,0.4-0.4,0.6-1.2,0.6c-4,0-8.6-0.2-8.9-0.2c-0.1,0-4.6,0.2-6.8,0.2c-0.8,0-1.2-0.2-1.2-0.6
		c0-0.2,0.1-0.4,0.6-0.4c0.6,0,1.5-0.2,2.2-0.3c1.5-0.3,1.8-1.9,2.1-4c0.4-3,0.4-8.8,0.4-15.7V244.8z M162.6,251.1
		c0,0.4,0.1,0.7,0.5,0.9c1.1,0.7,4.4,1.2,7.6,1.2c1.7,0,3.8-0.2,5.4-1.4c2.5-1.7,4.4-5.7,4.4-11.2c0-9.1-4.8-14.5-12.5-14.5
		c-2.2,0-4.1,0.2-4.9,0.4c-0.4,0.1-0.6,0.4-0.6,0.9V251.1z"/>
	<path class="st1" d="M207.6,244.8c0-11.3,0-13.3-0.2-15.7c-0.1-2.5-0.7-3.6-3.1-4.1c-0.6-0.1-1.8-0.2-2.5-0.2
		c-0.3,0-0.6-0.1-0.6-0.4c0-0.4,0.4-0.6,1.2-0.6c3.3,0,7.8,0.2,8.2,0.2c0.5,0,18.5,0,20.1-0.1c1.4-0.1,2.5-0.2,3.1-0.4
		c0.4-0.1,0.6-0.4,1-0.4c0.2,0,0.3,0.3,0.3,0.6c0,0.5-0.4,1.4-0.6,3.4c-0.1,0.7-0.2,3.9-0.4,4.8c-0.1,0.4-0.2,0.8-0.5,0.8
		c-0.4,0-0.6-0.4-0.6-0.9c0-0.5-0.1-1.7-0.4-2.6c-0.5-1.2-1.2-2-5.1-2.5c-1.2-0.2-12.7-0.2-13.5-0.2c-0.3,0-0.4,0.2-0.4,0.7v20
		c0,0.5,0.1,0.7,0.4,0.7c0.9,0,13.4,0,15.1-0.1c1.8-0.1,2.8-0.3,3.4-1c0.5-0.6,0.8-0.9,1.1-0.9c0.2,0,0.4,0.1,0.4,0.6
		c0,0.4-0.4,1.7-0.6,4.1c-0.2,1.5-0.3,4.1-0.3,4.6c0,0.6,0,1.4-0.5,1.4c-0.4,0-0.5-0.3-0.5-0.7c0-0.7,0-1.4-0.3-2.4
		c-0.3-1-0.9-2.3-3.8-2.5c-2-0.2-12.7-0.3-13.9-0.3c-0.4,0-0.5,0.2-0.5,0.5v6.3c0,2.5-0.1,10.9,0,12.4c0.2,5,4.8,5.9,11.9,5.9
		c1.9,0,5.1,0,7-0.8c1.9-0.8,2.8-2.2,3.2-5.2c0.2-0.8,0.3-1.1,0.7-1.1c0.4,0,0.4,0.6,0.4,1.1c0,0.6-0.6,5.5-0.9,7
		c-0.5,1.9-1.1,1.9-3.9,1.9c-10.9,0-19.3-0.4-21.4-0.4c-0.4,0-4.9,0.2-7.1,0.2c-0.8,0-1.2-0.2-1.2-0.6c0-0.2,0.1-0.4,0.6-0.4
		c0.6,0,1.5-0.2,2.2-0.3c1.5-0.3,1.8-1.9,2.1-4c0.4-3,0.4-8.8,0.4-15.7V244.8z"/>
	<path class="st1" d="M116.3,222.8c16.3,0,28.5,10.3,28.5,27.2c0,16.2-11.4,29.6-28.9,29.6c-19.9,0-28.1-15.4-28.1-28.5
		C87.8,239.4,96.3,222.8,116.3,222.8 M117.9,276.8c6.5,0,20-3.8,20-24.9c0-17.4-10.6-26.7-22-26.7c-12.1,0-21.2,8-21.2,23.9
		C94.7,265.9,104.8,276.8,117.9,276.8"/>
	<path class="st1" d="M284.9,260.1c0-5.9-0.4-6.7-3.3-7.5c-0.6-0.1-1.8-0.2-2.5-0.2c-0.3,0-0.6-0.2-0.6-0.4c0-0.4,0.4-0.6,1.2-0.6
		c3.3,0,7.8,0.2,8.2,0.2c0.4,0,4.9-0.2,7.1-0.2c0.8,0,1.2,0.1,1.2,0.6c0,0.3-0.3,0.4-0.6,0.4c-0.5,0-0.9,0.1-1.8,0.2
		c-2,0.4-2.5,1.6-2.7,4.1c-0.2,2.3-0.2,4.5-0.2,7.5v8.1c0,3.3-0.1,3.4-0.9,3.9c-4.6,2.5-11.2,3.3-15.4,3.3c-5.5,0-13.7-0.7-21.7-7.8
		c-4.4-3.8-8.6-11.6-8.6-20.7c0-11.6,5.6-19.8,12.1-23.8c6.5-4.1,13.7-4.6,19.3-4.6c4.6,0,7.6,0.9,9,1.2c1.5,0.4,4.1,0.7,5.9,0.7
		c0.7,0.1,0.9,0.3,0.9,0.6c0,1-0.5,3.1-0.5,10.3c0,1.2-0.1,1.5-0.6,1.5c-0.4,0-0.4-0.4-0.5-1.1c-0.1-1-0.4-3-1.5-4.8
		c-1.8-2.8-5.6-5.9-14.9-5.9c-4.6,0-10,0.4-15.5,4.8c-4.2,3.3-7.2,9.9-7.2,18.4c0,10.2,5.1,17.6,7.7,20.1c5.7,5.6,10.2,7.8,16.9,7.8
		c2.6,0,6.4-0.4,8.2-1.5c0.9-0.5,1.5-1.3,1.5-2.5V260.1z"/>
	<path class="st1" d="M329.6,222.8c16.3,0,28.5,10.3,28.5,27.2c0,16.2-11.4,29.6-28.9,29.6c-19.9,0-28.1-15.4-28.1-28.5
		C301,239.4,309.6,222.8,329.6,222.8 M331.1,276.8c6.5,0,20-3.8,20-24.9c0-17.4-10.6-26.7-22-26.7c-12.1,0-21.1,8-21.1,23.9
		C307.9,265.9,318.1,276.8,331.1,276.8"/>
	<path class="st1" d="M373.8,268.7c0.2,5.9,0.9,7.8,2.8,8.4c1.4,0.4,3,0.4,3.6,0.4c0.4,0,0.6,0.2,0.6,0.4c0,0.4-0.4,0.6-1.3,0.6
		c-4.1,0-7-0.2-7.7-0.2s-3.7,0.2-7,0.2c-0.7,0-1.2-0.1-1.2-0.6c0-0.3,0.2-0.4,0.6-0.4c0.6,0,1.9-0.1,3-0.4c1.8-0.5,2.2-2.6,2.2-9.2
		l0.1-41.5c0-2.8,0.2-3.6,0.8-3.6c0.6,0,1.8,1.6,2.5,2.3c1.1,1.2,11.9,12.9,23.1,24.9c7.2,7.7,15.1,16.5,17.4,18.9l-0.8-36.8
		c-0.1-4.7-0.6-6.3-2.8-6.9c-1.3-0.3-3-0.4-3.6-0.4c-0.5,0-0.6-0.2-0.6-0.5c0-0.4,0.6-0.5,1.4-0.5c3.3,0,6.7,0.2,7.5,0.2
		c0.8,0,3.2-0.2,6.2-0.2c0.8,0,1.3,0.1,1.3,0.5c0,0.3-0.3,0.5-0.8,0.5c-0.4,0-0.9,0-1.7,0.2c-2.4,0.5-2.7,2.1-2.7,6.4l-0.1,42.5
		c0,4.8-0.2,5.1-0.7,5.1c-0.6,0-1.5-0.8-5.3-4.6c-0.8-0.7-11.2-11.4-18.9-19.6c-8.4-9.1-16.6-18.2-18.9-20.8L373.8,268.7z"/>
	<path class="st1" d="M36.2,352.1c0,10.9,0,19.9,0.6,24.6c0.3,3.3,1,5.8,4.4,6.2c1.6,0.2,4.1,0.5,5.1,0.5c0.7,0,0.9,0.3,0.9,0.7
		c0,0.6-0.6,0.9-1.8,0.9c-6.3,0-13.4-0.3-14-0.3c-0.6,0-7.7,0.3-11.1,0.3c-1.2,0-1.8-0.2-1.8-0.9c0-0.3,0.2-0.7,0.9-0.7
		c1,0,2.4-0.2,3.4-0.5c2.3-0.5,2.8-3,3.3-6.2c0.6-4.8,0.6-13.7,0.6-24.6v-9.9c0-0.5-0.3-0.7-0.7-0.7h-48.2c-0.3,0-0.7,0.1-0.7,0.7
		v9.9c0,10.9,0,19.9,0.6,24.6c0.3,3.3,1,5.8,4.4,6.2c1.6,0.2,4.1,0.5,5.1,0.5c0.7,0,0.9,0.3,0.9,0.7c0,0.6-0.6,0.9-1.8,0.9
		c-6.3,0-13.4-0.3-14-0.3c-0.6,0-7.7,0.3-11.1,0.3c-1.2,0-1.8-0.2-1.8-0.9c0-0.3,0.2-0.7,0.9-0.7c1,0,2.4-0.2,3.4-0.5
		c2.3-0.5,2.8-3,3.3-6.2c0.6-4.8,0.6-13.7,0.6-24.6v-20c0-17.7,0-20.9-0.2-24.5c-0.2-3.9-1.1-5.7-4.9-6.5c-0.9-0.2-2.8-0.3-3.9-0.3
		c-0.4,0-0.9-0.2-0.9-0.7c0-0.7,0.6-0.9,1.8-0.9c5.1,0,12.3,0.3,12.8,0.3c0.6,0,7.7-0.3,11.1-0.3c1.3,0,1.8,0.2,1.8,0.9
		c0,0.5-0.5,0.7-0.9,0.7c-0.8,0-1.5,0.1-2.8,0.3c-3.1,0.6-4,2.5-4.2,6.5c-0.2,3.6-0.2,8.9-0.2,26.6v2.4c0,0.6,0.3,0.7,0.7,0.7H26
		c0.3,0,0.7-0.1,0.7-0.7v-2.4c0-17.7,0-22.9-0.2-26.6c-0.2-3.9-1.1-5.7-4.9-6.5c-0.9-0.2-2.8-0.3-3.8-0.3c-0.5,0-0.9-0.2-0.9-0.7
		c0-0.7,0.6-0.9,1.8-0.9c5.1,0,12.3,0.3,12.8,0.3c0.6,0,7.7-0.3,11.1-0.3c1.3,0,1.8,0.2,1.8,0.9c0,0.5-0.5,0.7-0.9,0.7
		c-0.8,0-1.5,0.1-2.8,0.3c-3.1,0.6-4,2.5-4.2,6.5c-0.2,3.6-0.2,6.8-0.2,24.5V352.1z"/>
	<path class="st1" d="M67.2,332c0-17.7,0-20.9-0.2-24.5c-0.2-3.9-1.1-5.7-4.9-6.5c-0.9-0.2-2.8-0.3-3.9-0.3c-0.5,0-0.9-0.2-0.9-0.7
		c0-0.7,0.6-0.9,1.8-0.9c5.1,0,12.3,0.3,12.8,0.3c0.8,0,29,0,31.6-0.1c2.1-0.1,4-0.3,4.9-0.6c0.6-0.1,1-0.6,1.6-0.6
		c0.3,0,0.5,0.4,0.5,1c0,0.8-0.6,2.2-0.9,5.3c-0.1,1.1-0.3,6.1-0.6,7.5c-0.1,0.6-0.3,1.3-0.8,1.3c-0.7,0-0.9-0.6-0.9-1.5
		c0-0.8-0.1-2.7-0.7-4.1c-0.8-1.8-2-3.2-8.1-3.9c-1.9-0.2-19.9-0.3-21.1-0.3c-0.5,0-0.7,0.3-0.7,1.1V336c0,0.8,0.1,1.1,0.7,1.1
		c1.5,0,21,0,23.6-0.2c2.7-0.2,4.3-0.5,5.3-1.6c0.8-0.9,1.2-1.5,1.7-1.5c0.3,0,0.6,0.2,0.6,0.9c0,0.7-0.6,2.6-0.9,6.4
		c-0.2,2.3-0.5,6.5-0.5,7.3c0,0.9,0,2.1-0.8,2.1c-0.6,0-0.8-0.5-0.8-1c0-1.1,0-2.3-0.5-3.7c-0.5-1.6-1.5-3.5-5.9-4
		c-3.1-0.3-19.9-0.5-21.8-0.5c-0.6,0-0.8,0.3-0.8,0.8v9.9c0,3.9-0.1,17,0,19.4c0.3,7.8,7.6,9.3,18.7,9.3c2.9,0,7.9,0,10.9-1.3
		c3-1.2,4.3-3.5,5.1-8.2c0.2-1.2,0.5-1.7,1-1.7c0.7,0,0.7,0.9,0.7,1.7c0,0.9-0.9,8.6-1.5,11c-0.8,3-1.7,3-6.1,3
		c-17.2,0-30.3-0.7-33.6-0.7c-0.6,0-7.7,0.3-11.1,0.3c-1.2,0-1.8-0.2-1.8-0.9c0-0.3,0.2-0.7,0.9-0.7c1,0,2.4-0.2,3.4-0.5
		c2.3-0.5,2.8-2.9,3.3-6.2c0.6-4.8,0.6-13.7,0.6-24.6V332z"/>
	<path class="st1" d="M155.7,301.9c1.4-3.7,1.8-4.4,2.5-4.4c0.7,0,1.1,0.6,2.5,4.1c1.7,4.3,19.5,51.2,26.5,68.5
		c4.1,10.1,7.4,11.9,9.8,12.6c1.7,0.6,3.4,0.7,4.5,0.7c0.7,0,1.1,0.1,1.1,0.7c0,0.7-1,0.9-2.3,0.9c-1.7,0-10,0-17.8-0.2
		c-2.2-0.1-3.4-0.1-3.4-0.8c0-0.5,0.3-0.7,0.8-0.8c0.7-0.2,1.4-1.2,0.7-3.1L170,352.2c-0.2-0.5-0.5-0.7-1-0.7h-24.4
		c-0.6,0-0.9,0.3-1.1,0.9l-6.8,20.1c-1,2.8-1.6,5.6-1.6,7.6c0,2.3,2.4,3.3,4.3,3.3h1.2c0.8,0,1.1,0.2,1.1,0.7c0,0.7-0.7,0.9-1.7,0.9
		c-2.7,0-7.6-0.3-8.9-0.3c-1.2,0-7.5,0.3-12.8,0.3c-1.5,0-2.2-0.2-2.2-0.9c0-0.5,0.5-0.7,1-0.7c0.8,0,2.4-0.1,3.3-0.2
		c5.2-0.7,7.5-5,9.5-10.7L155.7,301.9z M167.5,347.4c0.6,0,0.6-0.3,0.5-0.8l-10.8-30.7c-0.6-1.7-1.1-1.7-1.7,0l-10,30.7
		c-0.2,0.6,0,0.8,0.3,0.8H167.5z"/>
	<path class="st1" d="M224.8,352.3c0,16.7,0.4,24,2.5,26c1.8,1.8,4.8,2.6,13.6,2.6c6,0,14-0.1,16.7-3.4c1.5-1.8,2.6-4.7,3-6.8
		c0.1-0.9,0.3-1.5,1-1.5c0.6,0,0.7,0.5,0.7,1.7c0,1.3-0.8,8.1-1.7,11.4c-0.8,2.6-1.2,3.1-7.2,3.1c-16.4,0-26.8-0.7-33.4-0.7
		c-1,0-7.7,0.3-11.1,0.3c-1.2,0-1.8-0.2-1.8-0.9c0-0.3,0.2-0.7,0.9-0.7c1,0,2.4-0.2,3.4-0.5c2.3-0.5,2.8-3,3.3-6.2
		c0.6-4.8,0.6-13.7,0.6-24.6v-20c0-17.7,0-20.9-0.2-24.5c-0.2-3.9-1.1-5.7-4.9-6.5c-0.9-0.2-2.8-0.3-3.9-0.3c-0.5,0-0.9-0.2-0.9-0.7
		c0-0.7,0.6-0.9,1.8-0.9c5.1,0,12.3,0.3,12.8,0.3c0.6,0,8.9-0.3,12.3-0.3c1.2,0,1.8,0.2,1.8,0.9c0,0.5-0.5,0.7-0.9,0.7
		c-0.8,0-2.4,0.1-3.8,0.3c-3.3,0.6-4.2,2.5-4.4,6.5c-0.2,3.6-0.2,6.8-0.2,24.5V352.3z"/>
	<path class="st1" d="M296.5,352.1c0,10.9,0,19.9,0.6,24.6c0.3,3.3,1,5.8,4.4,6.2c1.6,0.2,4.1,0.5,5.1,0.5c0.7,0,0.9,0.3,0.9,0.7
		c0,0.6-0.6,0.9-1.8,0.9c-6.2,0-13.4-0.3-14-0.3c-0.6,0-7.7,0.3-11.1,0.3c-1.3,0-1.8-0.2-1.8-0.9c0-0.3,0.2-0.7,0.9-0.7
		c1,0,2.4-0.2,3.4-0.5c2.3-0.5,2.8-3,3.3-6.2c0.6-4.8,0.6-13.7,0.6-24.6V304l-16.8,0.2c-7,0.1-9.8,0.9-11.6,3.6
		c-1.2,1.9-1.6,2.7-1.9,3.5c-0.3,0.9-0.7,1.1-1.1,1.1c-0.3,0-0.6-0.3-0.6-1c0-1.1,2.3-10.9,2.5-11.8c0.2-0.7,0.7-2.2,1.1-2.2
		c0.8,0,1.9,1.1,5,1.4c3.3,0.3,7.6,0.6,9,0.6h42.6c7.3,0,10.3-1.1,11.2-1.1c0.6,0,0.6,0.7,0.6,1.4c0,3.4-0.3,11.3-0.3,12.5
		c0,1-0.3,1.5-0.8,1.5c-0.6,0-0.8-0.3-0.9-1.9l-0.1-1.2c-0.5-3.4-3.1-6-14-6.2l-14.3-0.2V352.1z"/>
	<path class="st1" d="M414.9,352.1c0,10.9,0,19.9,0.6,24.6c0.3,3.3,1,5.8,4.4,6.2c1.6,0.2,4.1,0.5,5.1,0.5c0.7,0,0.9,0.3,0.9,0.7
		c0,0.6-0.6,0.9-1.8,0.9c-6.3,0-13.4-0.3-14-0.3c-0.6,0-7.7,0.3-11.1,0.3c-1.3,0-1.8-0.2-1.8-0.9c0-0.3,0.2-0.7,0.9-0.7
		c1,0,2.4-0.2,3.4-0.5c2.3-0.5,2.8-3,3.3-6.2c0.6-4.8,0.6-13.7,0.6-24.6v-9.9c0-0.5-0.3-0.7-0.7-0.7h-48.2c-0.3,0-0.7,0.1-0.7,0.7
		v9.9c0,10.9,0,19.9,0.6,24.6c0.3,3.3,1,5.8,4.4,6.2c1.6,0.2,4.1,0.5,5.1,0.5c0.7,0,0.9,0.3,0.9,0.7c0,0.6-0.6,0.9-1.8,0.9
		c-6.2,0-13.4-0.3-14-0.3c-0.6,0-7.7,0.3-11.1,0.3c-1.2,0-1.8-0.2-1.8-0.9c0-0.3,0.2-0.7,0.9-0.7c1,0,2.4-0.2,3.4-0.5
		c2.3-0.5,2.8-3,3.3-6.2c0.6-4.8,0.6-13.7,0.6-24.6v-20c0-17.7,0-20.9-0.2-24.5c-0.2-3.9-1.1-5.7-4.9-6.5c-0.9-0.2-2.8-0.3-3.9-0.3
		c-0.5,0-0.9-0.2-0.9-0.7c0-0.7,0.6-0.9,1.8-0.9c5.1,0,12.3,0.3,12.8,0.3c0.6,0,7.7-0.3,11.1-0.3c1.2,0,1.8,0.2,1.8,0.9
		c0,0.5-0.5,0.7-0.9,0.7c-0.8,0-1.5,0.1-2.8,0.3c-3.1,0.6-4,2.5-4.2,6.5c-0.2,3.6-0.2,8.9-0.2,26.6v2.4c0,0.6,0.3,0.7,0.7,0.7h48.2
		c0.3,0,0.7-0.1,0.7-0.7v-2.4c0-17.7,0-22.9-0.2-26.6c-0.2-3.9-1.1-5.7-4.9-6.5c-0.9-0.2-2.8-0.3-3.8-0.3c-0.5,0-0.9-0.2-0.9-0.7
		c0-0.7,0.6-0.9,1.8-0.9c5.1,0,12.3,0.3,12.8,0.3c0.6,0,7.7-0.3,11.1-0.3c1.2,0,1.8,0.2,1.8,0.9c0,0.5-0.5,0.7-0.9,0.7
		c-0.8,0-1.5,0.1-2.8,0.3c-3.1,0.6-4,2.5-4.2,6.5c-0.2,3.6-0.2,6.8-0.2,24.5V352.1z"/>
	<path class="st1" d="M363.3,441.5c0-17.7,0-20.9-0.2-24.5c-0.2-3.9-1.1-5.7-4.9-6.5c-0.9-0.2-2.8-0.3-3.9-0.3
		c-0.5,0-0.9-0.2-0.9-0.7c0-0.7,0.6-0.9,1.8-0.9c5.1,0,12.3,0.3,12.8,0.3c0.8,0,29,0,31.6-0.1c2.1-0.1,4-0.3,4.9-0.6
		c0.6-0.1,1-0.6,1.6-0.6c0.3,0,0.5,0.5,0.5,1c0,0.8-0.6,2.2-0.9,5.3c-0.1,1.1-0.4,6.1-0.6,7.5c-0.1,0.6-0.3,1.2-0.8,1.2
		c-0.7,0-0.9-0.6-0.9-1.5c0-0.8-0.1-2.7-0.7-4.1c-0.8-1.8-1.9-3.2-8.1-3.9c-1.9-0.2-19.8-0.3-21.1-0.3c-0.5,0-0.7,0.3-0.7,1.1v31.4
		c0,0.8,0.1,1.1,0.7,1.1c1.5,0,21,0,23.6-0.2c2.7-0.2,4.3-0.5,5.3-1.6c0.8-0.9,1.2-1.5,1.7-1.5c0.4,0,0.6,0.2,0.6,0.9
		c0,0.7-0.6,2.6-0.9,6.4c-0.2,2.3-0.4,6.5-0.4,7.3c0,0.9,0,2.2-0.8,2.2c-0.6,0-0.8-0.5-0.8-1c0-1.1,0-2.3-0.5-3.8
		c-0.5-1.6-1.5-3.5-5.9-4c-3.1-0.3-19.9-0.5-21.8-0.5c-0.6,0-0.8,0.3-0.8,0.8v9.9c0,3.9-0.1,17,0,19.4c0.4,7.8,7.6,9.3,18.7,9.3
		c2.9,0,7.9,0,10.9-1.3c3-1.2,4.3-3.5,5.1-8.2c0.2-1.2,0.5-1.7,1-1.7c0.7,0,0.7,0.9,0.7,1.7c0,0.9-0.9,8.6-1.5,11
		c-0.8,2.9-1.7,2.9-6.1,2.9c-17.2,0-30.3-0.7-33.6-0.7c-0.5,0-7.7,0.3-11.1,0.3c-1.2,0-1.8-0.2-1.8-0.9c0-0.3,0.2-0.7,0.9-0.7
		c1,0,2.4-0.2,3.4-0.5c2.3-0.5,2.8-3,3.3-6.2c0.6-4.8,0.6-13.8,0.6-24.7V441.5z"/>
	<path class="st1" d="M162.1,493c-1.6-0.8-1.7-1.2-1.7-4.3c0-5.7,0.5-10.2,0.6-12c0.1-1.3,0.3-1.8,0.9-1.8c0.7,0,0.8,0.3,0.8,1.2
		c0,1,0,2.6,0.3,4.2c1.7,8.4,9.2,11.6,16.8,11.6c10.9,0,16.3-7.8,16.3-15.1c0-7.8-3.3-12.4-13.1-20.5l-5.1-4.2
		c-12-9.9-14.8-16.9-14.8-24.6c0-12.2,9.1-20.5,23.5-20.5c4.4,0,7.7,0.5,10.6,1.1c2.1,0.5,3.1,0.6,4,0.6c0.9,0,1.2,0.2,1.2,0.8
		c0,0.6-0.5,4.3-0.5,12c0,1.8-0.2,2.6-0.8,2.6c-0.7,0-0.8-0.6-0.9-1.5c-0.1-1.4-0.8-4.4-1.5-5.7c-0.7-1.2-3.8-6-14.2-6
		c-7.8,0-14,4.9-14,13.2c0,6.5,3.2,10.3,13.9,19.1l3.2,2.5c13.4,10.6,16.6,17.6,16.6,26.7c0,4.7-1.8,13.3-9.7,18.9
		c-4.9,3.4-11,4.8-17.2,4.8C172,496,166.8,495.3,162.1,493"/>
	<path class="st1" d="M328.2,461.5c0,10.9,0,19.9,0.6,24.7c0.3,3.3,1,5.8,4.4,6.2c1.6,0.2,4.1,0.5,5.1,0.5c0.7,0,0.9,0.3,0.9,0.7
		c0,0.6-0.6,0.9-1.8,0.9c-6.2,0-13.4-0.3-14-0.3c-0.6,0-7.7,0.3-11.1,0.3c-1.3,0-1.8-0.2-1.8-0.9c0-0.3,0.2-0.7,0.9-0.7
		c1,0,2.4-0.2,3.4-0.5c2.3-0.5,2.8-3,3.3-6.2c0.6-4.8,0.6-13.8,0.6-24.7v-20c0-17.7,0-20.9-0.2-24.5c-0.2-3.9-1.4-5.8-3.8-6.4
		c-1.3-0.3-2.7-0.5-3.5-0.5c-0.5,0-0.9-0.2-0.9-0.7c0-0.7,0.6-0.9,1.8-0.9c3.8,0,10.9,0.3,11.5,0.3c0.6,0,7.7-0.3,11.1-0.3
		c1.3,0,1.8,0.2,1.8,0.9c0,0.5-0.5,0.7-0.9,0.7c-0.8,0-1.5,0.1-2.8,0.3c-3.1,0.6-4,2.5-4.2,6.5c-0.2,3.6-0.2,6.8-0.2,24.5V461.5z"/>
	<path class="st1" d="M440.4,479c0.2,9.3,1.4,12.3,4.4,13.2c2.2,0.6,4.7,0.7,5.7,0.7c0.6,0,0.9,0.2,0.9,0.7c0,0.7-0.7,0.9-2.1,0.9
		c-6.5,0-11-0.3-12-0.3c-1,0-5.8,0.3-10.9,0.3c-1.1,0-1.8-0.1-1.8-0.9c0-0.5,0.3-0.7,0.9-0.7c0.9,0,3-0.1,4.7-0.7
		c2.8-0.8,3.4-4.1,3.4-14.4l0.1-65.1c0-4.4,0.4-5.7,1.3-5.7c0.9,0,2.8,2.5,4,3.6c1.7,1.9,18.6,20.2,36.1,39
		c11.2,12,23.6,25.9,27.3,29.6l-1.2-57.7c-0.1-7.4-0.9-9.9-4.4-10.8c-2-0.5-4.6-0.6-5.6-0.6c-0.8,0-0.9-0.3-0.9-0.8
		c0-0.7,0.9-0.8,2.3-0.8c5.1,0,10.6,0.3,11.8,0.3c1.3,0,5-0.3,9.7-0.3c1.2,0,2,0.1,2,0.8c0,0.5-0.5,0.8-1.2,0.8
		c-0.6,0-1.4,0-2.7,0.3c-3.8,0.8-4.2,3.3-4.2,10.1l-0.2,66.6c0,7.5-0.2,8.1-1,8.1c-0.9,0-2.3-1.3-8.3-7.3
		c-1.2-1.1-17.6-17.8-29.6-30.8c-13.2-14.2-26-28.5-29.7-32.6L440.4,479z"/>
	<path class="st1" d="M287.3,493.5c-4.1,1.7-11.2,2.5-18.1,2.6c-16.6-0.1-27.8-4.3-36.7-12.3c-11-9.9-13.7-22.8-13.7-33.6
		c0-7.6,2.6-20.9,12.7-31c6.7-6.7,16.8-12,33.8-12.1c4.2,0.1,9.8,0.4,14.7,1.3c4.1,0.8,7.6,1.5,11.1,1.7c1.2,0.1,1.5,0.6,1.5,1.3
		c0,0.9-0.3,2.3-0.6,6.4c-0.2,3.8-0.2,10-0.3,11.7c-0.1,1.7-0.4,2.4-1,2.4c-0.8,0-0.9-0.8-0.9-2.4c0-4.4-1.7-9.1-4.5-11.6
		c-3.8-3.4-12.1-6.5-21.6-6.5c-14.4,0-21,4.4-24.8,8.3c-7.9,8-9.7,18.1-9.7,29.6c0,21.7,15.9,41.6,39,41.6c8.1,0,14.6-1.3,18.7-5.7
		c2.3-2.5,3.8-7.5,4.1-9.5c0.2-1.2,0.5-1.7,1.2-1.7c0.6,0,0.8,0.8,0.8,1.7c0,0.8-1.4,10.7-2.5,14.5
		C289.6,492.3,289.4,492.6,287.3,493.5"/>
	<path class="st1" d="M629.3,441.5c0-17.7,0-20.9-0.2-24.5c-0.2-3.9-1.1-5.7-4.9-6.5c-0.9-0.2-2.8-0.3-3.9-0.3
		c-0.5,0-0.9-0.2-0.9-0.7c0-0.7,0.6-0.9,1.8-0.9c5.1,0,12.3,0.3,12.8,0.3c0.8,0,28.9,0,31.6-0.1c2.2-0.1,4-0.3,4.9-0.6
		c0.6-0.1,1-0.5,1.6-0.5c0.3,0,0.5,0.5,0.5,1c0,0.8-0.6,2.2-0.9,5.3c-0.1,1.1-0.3,6.1-0.6,7.5c-0.1,0.6-0.3,1.3-0.8,1.3
		c-0.7,0-0.9-0.6-0.9-1.5c0-0.8-0.1-2.7-0.7-4.1c-0.8-1.8-1.9-3.2-8.1-3.9c-1.9-0.2-19.9-0.4-21.1-0.4c-0.4,0-0.7,0.4-0.7,1.1v31.4
		c0,0.8,0.1,1.1,0.7,1.1c1.5,0,21,0,23.6-0.2c2.7-0.2,4.3-0.5,5.4-1.6c0.8-0.9,1.2-1.5,1.7-1.5c0.3,0,0.6,0.2,0.6,0.9
		c0,0.7-0.6,2.6-0.9,6.4c-0.2,2.3-0.5,6.5-0.5,7.3c0,0.9,0,2.2-0.8,2.2c-0.6,0-0.8-0.5-0.8-1c0-1.1,0-2.3-0.5-3.7
		c-0.5-1.6-1.5-3.5-5.9-4c-3.1-0.3-19.9-0.5-21.8-0.5c-0.5,0-0.8,0.3-0.8,0.8v9.9c0,3.9-0.1,17,0,19.4c0.3,7.8,7.6,9.3,18.7,9.3
		c3,0,8,0,10.9-1.2c2.9-1.2,4.3-3.5,5.1-8.2c0.2-1.3,0.4-1.7,1-1.7c0.7,0,0.7,0.9,0.7,1.7c0,0.9-0.9,8.6-1.5,11
		c-0.8,2.9-1.7,2.9-6.1,2.9c-17.2,0-30.3-0.7-33.6-0.7c-0.6,0-7.7,0.3-11.1,0.3c-1.2,0-1.8-0.2-1.8-0.9c0-0.3,0.2-0.7,0.9-0.7
		c1,0,2.4-0.2,3.4-0.5c2.3-0.5,2.8-3,3.3-6.3c0.6-4.8,0.6-13.7,0.6-24.6V441.5z"/>
	<path class="st1" d="M599.1,493.5c-4.1,1.7-11.2,2.6-18.1,2.6c-16.6-0.1-27.8-4.3-36.7-12.3c-11-9.9-13.7-22.8-13.7-33.6
		c0-7.6,2.6-20.9,12.7-31c6.7-6.7,16.9-12,33.8-12.1c4.2,0.1,9.8,0.4,14.7,1.3c4.1,0.8,7.6,1.5,11.1,1.7c1.3,0.1,1.5,0.6,1.5,1.2
		c0,0.9-0.3,2.3-0.6,6.4c-0.2,3.8-0.2,10-0.3,11.7c-0.1,1.7-0.4,2.4-1,2.4c-0.8,0-0.9-0.8-0.9-2.4c0-4.4-1.7-9.1-4.5-11.6
		c-3.8-3.4-12.1-6.5-21.6-6.5c-14.4,0-21.1,4.4-24.8,8.3c-7.9,8-9.7,18.1-9.7,29.6c0,21.7,15.9,41.6,39,41.6
		c8.1,0,14.6-1.2,18.7-5.7c2.3-2.5,3.8-7.5,4.1-9.5c0.2-1.2,0.5-1.7,1.2-1.7c0.6,0,0.8,0.8,0.8,1.7c0,0.8-1.4,10.7-2.5,14.5
		C601.4,492.3,601.1,492.6,599.1,493.5"/>
	<path class="st1" d="M146.5,492.8c-3.5,0-8.4-1.9-11.5-3.8c-2.7-1.5-7-4.2-13.4-9.6c4.3-5.2,9.6-15,9.6-22.9c0-1-0.3-1.7-1.8-1.9
		c-5.4-0.6-9.3-0.7-11.6-0.7c-0.8,0-1.5,0.2-1.5,0.7c0,0.5,0.6,0.7,1.2,0.7c1.5,0,3.5,0.3,4.8,1.5c1.5,1.5,1.8,3.3,1.8,4.8
		c0,5.9-2.2,12.4-4.9,16.1c-3.1-2.6-15-13.8-18.3-17.3c-2.8-3-4.8-5.4-6.8-7.8c7.6-4.7,16.3-10,15.6-20c-0.5-7.9-7.7-13.1-15.8-12.6
		c-10.5,0.7-16.1,9.9-15.3,17.8c0.5,4.3,1.6,8,5.2,13c-7.6,4.5-14.8,12-14.8,23.3c0,8.4,6.6,21.4,23.5,21.4c14.3,0,22-8.2,24.2-10.5
		c10.7,8.4,13,9.1,20.1,9.1h9.5c0.9,0,1.7-0.3,1.7-0.7C147.9,492.9,147.4,492.8,146.5,492.8 M94.4,422.6c5.7-0.2,10.4,3.9,10,10.9
		c-0.4,7-4.5,11.4-12.1,16.8c-4.2-5.4-7.5-11.2-8.1-16.1C83.4,428.7,86.7,422.9,94.4,422.6 M95.7,490.4c-10.8,0-19.4-8.7-19.4-20.8
		c0-7.8,3.7-13,8.7-16.3c2.7,4,8.9,10.9,11.4,13.6c2.5,2.7,12.1,11.9,17.5,16.4C110.7,486.6,104.8,490.4,95.7,490.4"/>
	<path class="st0" d="M581.9,322.7c-32.6,0-62.9,3.4-88.3,9.2l0.7,2.1c24.7-4.5,53.6-6.5,84.4-5.5c20.1,0.7,39.4,2.6,57.1,5.5
		l2.6-7.7C620.8,323.9,601.8,322.7,581.9,322.7"/>
	<path class="st0" d="M521.6,371.6c-10,0-14.9-6.1-14.9-15.7c0-10.3,7.2-16.5,16-16.5c8.7,0,14.9,5,14.9,15.7
		C537.6,365.3,530.5,371.6,521.6,371.6 M522.2,344.7c-4.5,0-8.7,3.4-8.7,10.5c0,6.6,2.7,10.9,8.6,10.9c4.3,0,8.8-3.1,8.8-10.6
		C530.9,348.5,527.8,344.7,522.2,344.7"/>
	<polygon class="st0" points="562.8,371 562.8,357.5 548.9,357.5 548.9,371 542.6,371 542.6,339.8 548.9,339.8 548.9,352.3 
		562.8,352.3 562.8,339.8 569.1,339.8 569.1,371 	"/>
	<path class="st0" d="M581.9,371.6c-2.3,0-4.6-0.2-6.7-0.7l0.4-5.6c1.8,0.6,4.5,1.1,6.8,1.1c3.2,0,5.7-1.3,5.7-4.1
		c0-6-13.7-3.2-13.7-13.5c0-5.6,4.6-9.4,12.4-9.4c1.8,0,4,0.2,5.9,0.5l-0.3,5.3c-1.8-0.5-3.9-0.8-5.9-0.8c-3.6,0-5.5,1.6-5.5,3.8
		c0,5.6,13.7,3.5,13.7,13.3C594.9,367.2,590,371.6,581.9,371.6"/>
	<path class="st0" d="M612.9,371.6c-10.3,0-12.6-5.4-12.6-11.3v-20.4h6.3v20c0,3.9,1.4,6.7,6.8,6.7c4.8,0,6.9-1.9,6.9-7.3v-19.5h6.2
		v19.1C626.4,367.5,621.5,371.6,612.9,371.6"/>
	<path class="st2" d="M520,147.6c75.9-44.7,68.8-49.9,65.9-54l0.2-0.1c5.5,4.5,19.3,23.8-42.7,60.8c-71.9,42.9-55.6,70.5-18.1,100.7
		l-0.1-0.1C509.2,247.3,426,203,520,147.6"/>
	<path class="st3" d="M575.3,215.3c-74.3-44.7-67.8-49.1-65-53.1l-0.2-0.1c-5.5,4.5-18.4,23.4,42.7,59.9c58.8,35.1,52.7,57.1,31,90
		c0,0.2-0.3,0.4-0.3,0.6C613.3,293.1,636.4,252.1,575.3,215.3"/>
	<path class="st2" d="M532.8,227.1L532.8,227.1c-9.3-19.9-5.5-32.2,37.4-57.6c66.3-39.2,27.3-75.3,16.7-83.6l0.2-0.1
		c12.3,6.6,63.1,49.4-6.1,91C549.3,196,529.9,207.2,532.8,227.1"/>
	<path class="st4" d="M591.5,262.9c-38.1,22.6-52.3,40.8-41.2,55.3c-3.3-20,26.3-29.1,56.7-47.6c90.8-55.2,25.4-105.2,8.1-113.5
		l-0.3,0.2C629.7,167.6,676.1,212.6,591.5,262.9"/>
	<path class="st3" d="M579.4,308.4l0-0.2c9.3-19.9-14.3-42-57.2-67.4c-66.3-39.2-27.3-75.4-16.7-83.6l-0.2-0.1
		c-12.3,6.6-63.2,49.4,6,91C543.1,267.3,582.3,288.5,579.4,308.4"/>
	<path class="st4" d="M556.1,220c70-44.7,62.6-51.4,60-55.5l0.2-0.1c5.1,4.5,20.2,23.8-37,60.9c-66.4,42.9-66.2,57.9-31.6,88.1
		l2.7,4.9C535.6,310.7,469.4,275.5,556.1,220"/>
</g>
</svg>
